<mxfile host="app.diagrams.net" version="24.7.17">
  <diagram id="vTTbOwciC4PLX_VueyR0" name="Users">
    <mxGraphModel dx="4405" dy="562" grid="1" gridSize="10" guides="1" tooltips="1" connect="1" arrows="1" fold="1" page="1" pageScale="1" pageWidth="3300" pageHeight="2339" background="#FFFFFF" math="0" shadow="0">
      <root>
        <mxCell id="0" />
        <mxCell id="1" parent="0" />
        <mxCell id="Bh3Ocgsr7HBV2ToXXT4P-11" value="&lt;div&gt;HTTPS&lt;/div&gt;&lt;div&gt;(Redirect)&lt;/div&gt;" style="edgeStyle=orthogonalEdgeStyle;rounded=0;orthogonalLoop=1;jettySize=auto;html=1;entryX=0.5;entryY=0;entryDx=0;entryDy=0;fontFamily=sans-serif;fontSize=8;dashed=1;startArrow=classic;startFill=1;" edge="1" parent="1" source="9XDnjn4z7Z36OQ7EGYea-29" target="gijSiJ1kWZIcr5wRInpQ-1">
          <mxGeometry relative="1" as="geometry" />
        </mxCell>
        <mxCell id="9XDnjn4z7Z36OQ7EGYea-29" value="&lt;div&gt;OAuth client&lt;/div&gt;&lt;div&gt;&lt;br&gt;&lt;/div&gt;&lt;div&gt;web browser&lt;br&gt;&lt;/div&gt;" style="rounded=1;whiteSpace=wrap;html=1;fontSize=8;fontFamily=sans-serif;shadow=0;glass=0;sketch=0;perimeterSpacing=0;strokeWidth=1;dashed=1;fillColor=#bac8d3;strokeColor=none;" parent="1" vertex="1">
          <mxGeometry x="-1200" y="1200" width="120" height="60" as="geometry" />
        </mxCell>
        <mxCell id="gijSiJ1kWZIcr5wRInpQ-4" value="SQL" style="edgeStyle=orthogonalEdgeStyle;rounded=1;orthogonalLoop=1;jettySize=auto;html=1;entryX=0;entryY=0.5;entryDx=0;entryDy=0;curved=0;fontFamily=sans-serif;fontSize=8;" parent="1" source="gijSiJ1kWZIcr5wRInpQ-1" target="gijSiJ1kWZIcr5wRInpQ-2" edge="1">
          <mxGeometry relative="1" as="geometry" />
        </mxCell>
        <mxCell id="gijSiJ1kWZIcr5wRInpQ-1" value="scorpion&lt;br&gt;&lt;br&gt;Ory Hydra" style="rounded=1;whiteSpace=wrap;html=1;fontSize=8;fontFamily=sans-serif;fillColor=#b1ddf0;strokeColor=#10739e;strokeWidth=2;" parent="1" vertex="1">
          <mxGeometry x="-1200" y="1380" width="120" height="60" as="geometry" />
        </mxCell>
        <mxCell id="gijSiJ1kWZIcr5wRInpQ-2" value="&lt;div&gt;diamond&lt;/div&gt;&lt;div&gt;&lt;br&gt;&lt;/div&gt;&lt;div&gt;CockroachDB&lt;br&gt;&lt;/div&gt;" style="rounded=1;whiteSpace=wrap;html=1;fontSize=8;fontFamily=sans-serif;dashed=1;fillColor=#d0cee2;strokeColor=#56517e;" parent="1" vertex="1">
          <mxGeometry x="-960" y="1380" width="120" height="60" as="geometry" />
        </mxCell>
        <mxCell id="Bh3Ocgsr7HBV2ToXXT4P-8" value="HTTP" style="edgeStyle=orthogonalEdgeStyle;rounded=0;orthogonalLoop=1;jettySize=auto;html=1;exitX=1;exitY=0.75;exitDx=0;exitDy=0;entryX=0;entryY=0.75;entryDx=0;entryDy=0;fontFamily=sans-serif;fontSize=8;" edge="1" parent="1" source="gijSiJ1kWZIcr5wRInpQ-29" target="gijSiJ1kWZIcr5wRInpQ-1">
          <mxGeometry relative="1" as="geometry" />
        </mxCell>
        <mxCell id="Bh3Ocgsr7HBV2ToXXT4P-9" value="&lt;div&gt;HTTPS&lt;/div&gt;&lt;div&gt;(Redirect)&lt;/div&gt;" style="edgeStyle=orthogonalEdgeStyle;rounded=0;orthogonalLoop=1;jettySize=auto;html=1;exitX=1;exitY=0.25;exitDx=0;exitDy=0;entryX=0;entryY=0.25;entryDx=0;entryDy=0;startArrow=classic;startFill=1;dashed=1;fontFamily=sans-serif;fontSize=8;" edge="1" parent="1" source="gijSiJ1kWZIcr5wRInpQ-29" target="gijSiJ1kWZIcr5wRInpQ-1">
          <mxGeometry relative="1" as="geometry" />
        </mxCell>
        <mxCell id="Bh3Ocgsr7HBV2ToXXT4P-10" value="&lt;div&gt;HTTPS&lt;/div&gt;&lt;div&gt;(Redirect)&lt;br&gt;&lt;/div&gt;" style="edgeStyle=orthogonalEdgeStyle;rounded=0;orthogonalLoop=1;jettySize=auto;html=1;entryX=0.5;entryY=0;entryDx=0;entryDy=0;startArrow=classic;startFill=1;dashed=1;fontFamily=sans-serif;fontSize=8;" edge="1" parent="1" source="gijSiJ1kWZIcr5wRInpQ-29" target="Bh3Ocgsr7HBV2ToXXT4P-4">
          <mxGeometry relative="1" as="geometry" />
        </mxCell>
        <mxCell id="gijSiJ1kWZIcr5wRInpQ-29" value="crocus&lt;br&gt;&lt;br&gt;Next.js" style="rounded=1;whiteSpace=wrap;html=1;fontSize=8;fontFamily=sans-serif;fillColor=#fad7ac;strokeColor=#b46504;strokeWidth=2;" parent="1" vertex="1">
          <mxGeometry x="-1440" y="1380" width="120" height="60" as="geometry" />
        </mxCell>
        <mxCell id="Bh3Ocgsr7HBV2ToXXT4P-1" value="&lt;div&gt;obsidian&lt;/div&gt;&lt;div&gt;&lt;br&gt;&lt;/div&gt;&lt;div&gt;CockroachDB&lt;br&gt;&lt;/div&gt;" style="rounded=1;whiteSpace=wrap;html=1;fontSize=8;fontFamily=sans-serif;dashed=1;fillColor=#d0cee2;strokeColor=#56517e;" vertex="1" parent="1">
          <mxGeometry x="-960" y="1560" width="120" height="60" as="geometry" />
        </mxCell>
        <mxCell id="Bh3Ocgsr7HBV2ToXXT4P-3" value="SQL" style="edgeStyle=orthogonalEdgeStyle;rounded=0;orthogonalLoop=1;jettySize=auto;html=1;entryX=0;entryY=0.5;entryDx=0;entryDy=0;fontFamily=sans-serif;fontSize=8;" edge="1" parent="1" source="Bh3Ocgsr7HBV2ToXXT4P-2" target="Bh3Ocgsr7HBV2ToXXT4P-1">
          <mxGeometry relative="1" as="geometry" />
        </mxCell>
        <mxCell id="Bh3Ocgsr7HBV2ToXXT4P-2" value="falcon&lt;br&gt;&lt;br&gt;Ory Kratos" style="rounded=1;whiteSpace=wrap;html=1;fontSize=8;fontFamily=sans-serif;fillColor=#b1ddf0;strokeColor=#10739e;strokeWidth=2;" vertex="1" parent="1">
          <mxGeometry x="-1200" y="1560" width="120" height="60" as="geometry" />
        </mxCell>
        <mxCell id="Bh3Ocgsr7HBV2ToXXT4P-6" value="HTTP" style="edgeStyle=orthogonalEdgeStyle;rounded=0;orthogonalLoop=1;jettySize=auto;html=1;exitX=1;exitY=0.75;exitDx=0;exitDy=0;entryX=0;entryY=0.75;entryDx=0;entryDy=0;fontFamily=sans-serif;fontSize=8;" edge="1" parent="1" source="Bh3Ocgsr7HBV2ToXXT4P-4" target="Bh3Ocgsr7HBV2ToXXT4P-2">
          <mxGeometry relative="1" as="geometry" />
        </mxCell>
        <mxCell id="Bh3Ocgsr7HBV2ToXXT4P-7" value="&lt;div&gt;HTTPS&lt;/div&gt;&lt;div&gt;(Redirect)&lt;br&gt;&lt;/div&gt;" style="edgeStyle=orthogonalEdgeStyle;rounded=0;orthogonalLoop=1;jettySize=auto;html=1;exitX=1;exitY=0.25;exitDx=0;exitDy=0;entryX=0;entryY=0.25;entryDx=0;entryDy=0;startArrow=classic;startFill=1;dashed=1;fontFamily=sans-serif;fontSize=8;" edge="1" parent="1" source="Bh3Ocgsr7HBV2ToXXT4P-4" target="Bh3Ocgsr7HBV2ToXXT4P-2">
          <mxGeometry relative="1" as="geometry" />
        </mxCell>
        <mxCell id="Bh3Ocgsr7HBV2ToXXT4P-4" value="orchid&lt;br&gt;&lt;br&gt;Next.js" style="rounded=1;whiteSpace=wrap;html=1;fontSize=8;fontFamily=sans-serif;fillColor=#fad7ac;strokeColor=#b46504;strokeWidth=2;" vertex="1" parent="1">
          <mxGeometry x="-1440" y="1560" width="120" height="60" as="geometry" />
        </mxCell>
      </root>
    </mxGraphModel>
  </diagram>
</mxfile>
